<?xml version="1.0" encoding="utf-8"?>
<!-- Generator: Adobe Illustrator 27.6.1, SVG Export Plug-In . SVG Version: 6.00 Build 0)  -->
<svg version="1.1" id="Layer_1" xmlns="http://www.w3.org/2000/svg" xmlns:xlink="http://www.w3.org/1999/xlink" x="0px" y="0px"
	 viewBox="0 0 58.3 57.9" style="enable-background:new 0 0 58.3 57.9;" xml:space="preserve">
<style type="text/css">
	.st0{fill:url(#SVGID_1_);}
	.st1{fill:url(#SVGID_00000025432158517591091510000004781581142610983595_);}
	.st2{clip-path:url(#SVGID_00000001661548650744031900000017778216079652288421_);}
	.st3{fill:#211259;}
	.st4{fill:#7D24AB;}
	.st5{fill:#006EC2;}
	.st6{fill:#A31C9E;}
	.st7{fill:#00CCFA;}
	.st8{fill:#808285;}
	.st9{fill:url(#SVGID_00000165200347885933472250000007441038034499895211_);}
	.st10{fill:url(#SVGID_00000145764704860217143140000013433145817964478608_);}
	.st11{fill:url(#SVGID_00000031190185654200724700000000174599432422976152_);}
	.st12{fill:url(#SVGID_00000025432326730721497150000005756661076602792637_);}
	.st13{fill:url(#SVGID_00000102504355307806227570000006059394684792005260_);}
	.st14{fill:url(#SVGID_00000127039434294413005680000014711999082256267450_);}
	.st15{fill:url(#SVGID_00000026866841508319273330000009607517579514690491_);}
	.st16{fill:url(#SVGID_00000098216782452121780620000014887304478924894618_);}
	
		.st17{fill:none;stroke:url(#SVGID_00000041263010781070198230000006258436514951072693_);stroke-width:1.7317;stroke-miterlimit:10;}
	.st18{fill:url(#SVGID_00000121277228463794048360000014822540770920764571_);}
	.st19{fill:url(#SVGID_00000084521345341705798680000003016102229652837257_);}
	.st20{fill:url(#SVGID_00000176743050447525227430000006400082604372775325_);}
	.st21{fill:url(#SVGID_00000051384958522514008900000011429429529945231758_);}
	.st22{fill:url(#SVGID_00000064345380522819211070000009314191411557282229_);}
	.st23{fill:url(#SVGID_00000103258299078810858090000012381743226375516588_);}
	.st24{fill:url(#SVGID_00000041271905821598332120000012561651750242265731_);}
	.st25{fill:none;stroke:url(#SVGID_00000024682836530886115820000010233314941844224914_);stroke-width:3;stroke-miterlimit:10;}
	.st26{fill:url(#SVGID_00000012466514423186787940000014423097573894525322_);}
	.st27{fill:none;stroke:url(#SVGID_00000057118747740756700690000013718857573828339861_);stroke-width:3;stroke-miterlimit:10;}
	.st28{fill:none;stroke:url(#SVGID_00000049224309656148605600000003193946965894483886_);stroke-width:3;stroke-miterlimit:10;}
	.st29{fill:none;stroke:url(#SVGID_00000179635681898872084800000008949974787347918470_);stroke-width:3;stroke-miterlimit:10;}
	
		.st30{fill:none;stroke:url(#SVGID_00000156553298132557679650000002016147040605246336_);stroke-width:3.1105;stroke-miterlimit:10;}
	.st31{clip-path:url(#SVGID_00000110472422924352061400000010318580008341793414_);}
	.st32{clip-path:url(#SVGID_00000129884705623691839500000003915003887450153883_);}
	.st33{clip-path:url(#SVGID_00000137852883262219284780000018234176796170182821_);}
	.st34{clip-path:url(#SVGID_00000025440877286774150900000009530206320522672803_);}
	.st35{clip-path:url(#SVGID_00000122702123200161388590000006306714986302755500_);}
	.st36{fill:url(#SVGID_00000096750442554642141880000010212087327317754043_);}
	.st37{clip-path:url(#SVGID_00000021085437650901010180000003872311831962593923_);}
	.st38{fill:url(#SVGID_00000150810471004181146810000016332331971292267140_);}
	.st39{clip-path:url(#SVGID_00000178912107050142748890000016120499932522410640_);}
	.st40{fill:url(#SVGID_00000072246987511280286090000015536742243853826944_);}
	.st41{clip-path:url(#SVGID_00000177478552660276329010000015075910235898542478_);}
	.st42{clip-path:url(#SVGID_00000096024938896850505890000012247781003395207571_);}
	.st43{fill:url(#SVGID_00000175293428172730175170000006409062826588365996_);}
	.st44{fill:#FFFFFF;}
</style>
<linearGradient id="SVGID_1_" gradientUnits="userSpaceOnUse" x1="-1.818989e-12" y1="28.9391" x2="58.3414" y2="28.9391">
	<stop  offset="0" style="stop-color:#A31C9E"/>
	<stop  offset="1" style="stop-color:#00CCFA"/>
</linearGradient>
<path style="fill:none;stroke:url(#SVGID_1_);stroke-width:1.7317;stroke-miterlimit:10;" d="M43.5,57c-2.1,0.1-4.6-0.8-7-1.7
	c-10.3-3.9-18.5-10.5-25.4-19c-3.9-4.8-7.1-10.1-9.2-16C-0.1,14.6,0.8,9.4,5,4.9C6,3.8,7,2.8,8.1,1.7c1.2-1.2,2.4-1.2,3.6,0
	c3.2,3.2,6.4,6.4,9.6,9.6c1.2,1.3,1.2,2.5,0,3.7c-1.7,1.8-3.5,3.5-5.3,5.3c-2.3,2.3-2.4,4.6-0.5,7.2c4.4,5.9,9.5,10.9,15.5,15.2
	c2.5,1.8,4.9,1.6,7.1-0.6c1.7-1.7,3.3-3.4,4.9-5c1.4-1.4,2.6-1.4,4,0c3.1,3.1,6.2,6.2,9.3,9.3c1.4,1.4,1.4,2.6,0,4
	c-1.9,1.9-3.7,3.9-6.2,5.1C48.2,56.5,46.1,57,43.5,57z"/>
</svg>
