<?xml version="1.0" encoding="utf-8"?>
<!-- Generator: Adobe Illustrator 27.6.1, SVG Export Plug-In . SVG Version: 6.00 Build 0)  -->
<svg version="1.1" id="Layer_1" xmlns="http://www.w3.org/2000/svg" xmlns:xlink="http://www.w3.org/1999/xlink" x="0px" y="0px"
	 viewBox="0 0 55.4 50.4" style="enable-background:new 0 0 55.4 50.4;" xml:space="preserve">
<style type="text/css">
	.st0{fill:url(#SVGID_1_);}
	.st1{fill:url(#SVGID_00000178168461757565733830000016198991758208286373_);}
	.st2{clip-path:url(#SVGID_00000000213575331920446260000012901845801680515516_);}
	.st3{fill:#211259;}
	.st4{fill:#7D24AB;}
	.st5{fill:#006EC2;}
	.st6{fill:#A31C9E;}
	.st7{fill:#00CCFA;}
	.st8{fill:#808285;}
	.st9{fill:url(#SVGID_00000141420804550971032030000010824278584713383555_);}
	.st10{fill:url(#SVGID_00000110445758327147982800000005579084759719766463_);}
	.st11{fill:url(#SVGID_00000053535559063755266970000003862327654507964561_);}
	.st12{fill:url(#SVGID_00000009582662640113466550000014466378503871148975_);}
	.st13{fill:url(#SVGID_00000127740171107792989550000002522623811838585502_);}
	.st14{fill:url(#SVGID_00000104693990380682050870000000237631976413647008_);}
	.st15{fill:url(#SVGID_00000043432260955838865340000016436069518310797460_);}
	.st16{fill:url(#SVGID_00000135681932291145568610000017872148601066967717_);}
	
		.st17{fill:none;stroke:url(#SVGID_00000143598281023025278360000008792562847595977351_);stroke-width:1.7317;stroke-miterlimit:10;}
	.st18{fill:url(#SVGID_00000059274255633569300850000000364584016439261842_);}
	.st19{fill:url(#SVGID_00000080202459723569864350000011789866612909276545_);}
	.st20{fill:url(#SVGID_00000137128732686744500820000013566701088367473034_);}
	.st21{fill:url(#SVGID_00000095333730195255141350000002018469274781307060_);}
	.st22{fill:url(#SVGID_00000021837920308571019410000013416347253564663721_);}
	.st23{fill:url(#SVGID_00000077302101357796709020000011231530242674059188_);}
	.st24{fill:url(#SVGID_00000138565317065499463480000012389033382654482365_);}
	.st25{fill:none;stroke:url(#SVGID_00000036936095163060448720000006465374909161018532_);stroke-width:3;stroke-miterlimit:10;}
	.st26{fill:url(#SVGID_00000148624422668433543500000007696927286710827407_);}
	.st27{fill:none;stroke:url(#SVGID_00000023264936162066976160000017140130993053845661_);stroke-width:3;stroke-miterlimit:10;}
	.st28{fill:none;stroke:url(#SVGID_00000011718249501032277850000011871742088579394691_);stroke-width:3;stroke-miterlimit:10;}
	.st29{fill:none;stroke:url(#SVGID_00000000922624636938509070000012548640015338978490_);stroke-width:3;stroke-miterlimit:10;}
	
		.st30{fill:none;stroke:url(#SVGID_00000139280916915620500250000007562900642815998379_);stroke-width:3.1105;stroke-miterlimit:10;}
	.st31{clip-path:url(#SVGID_00000014603932528448286790000005150541680760952485_);}
	.st32{clip-path:url(#SVGID_00000034769457890120576760000017783732414766936988_);}
	.st33{clip-path:url(#SVGID_00000133521457757227256330000008550295400964583096_);}
	.st34{clip-path:url(#SVGID_00000023278059974656948040000017487314766034547102_);}
	.st35{clip-path:url(#SVGID_00000003069967203268163650000015988129773166808250_);}
	.st36{fill:url(#SVGID_00000101789407516312045350000001772546126345546925_);}
	.st37{clip-path:url(#SVGID_00000063592175500031228400000014364057067122249654_);}
	.st38{fill:url(#SVGID_00000173839656671540535640000007169509924286605985_);}
	.st39{clip-path:url(#SVGID_00000021082495821747285330000001967654012997137793_);}
	.st40{fill:url(#SVGID_00000140717432386615427340000006963211135786838714_);}
	.st41{clip-path:url(#SVGID_00000066490490347980118750000001504085291754132884_);}
	.st42{clip-path:url(#SVGID_00000075138546465367611410000001260118216271172534_);}
	.st43{fill:url(#SVGID_00000030450434077903134470000016978127087774323614_);}
	.st44{fill:#FFFFFF;}
</style>
<g>
	<linearGradient id="SVGID_1_" gradientUnits="userSpaceOnUse" x1="27.7116" y1="-10.2627" x2="27.7116" y2="62.0456">
		<stop  offset="0" style="stop-color:#A31C9E"/>
		<stop  offset="1" style="stop-color:#00CCFA"/>
	</linearGradient>
	<path class="st0" d="M53.2,24.8L53.2,24.8c-2.5-3.8-5-7.5-7.5-11.2c-0.2-0.3-0.4-0.5-0.8-0.5c-3.3,0-6.6,0-9.9,0h-0.6V15h0.6
		c2.9,0,5.9,0,8.8,0c0.4,0,0.6,0.1,0.8,0.4c2.5,3.8,5.1,7.6,7.6,11.5c0.1,0.1,0.2,0.3,0.3,0.5H37.3v6.7H18.1v-6.7H2.8
		c0.1-0.2,0.1-0.2,0.2-0.3c2.6-3.9,5.3-7.9,7.9-11.8c0.1-0.2,0.4-0.3,0.7-0.3c3,0,5.9,0,8.9,0H21v-1.9h-0.6c-3.3,0-6.5,0-9.8,0
		c-0.4,0-0.7,0.1-0.9,0.5C7.4,17,5.1,20.4,2.8,23.8h0c0,0.1-0.1,0.1-0.1,0.2c-0.7,1-1.3,2-2,3c0,0-0.1,0.1-0.1,0.1L0,28v18.7
		c0,2.3,1.3,3.6,3.6,3.6c16.1,0,32.1,0,48.2,0c0.4,0,0.8,0,1.2-0.1c1.5-0.4,2.4-1.6,2.4-3.4c0-5.9,0-11.8,0-17.7c0,0,0,0,0,0v-1
		L53.2,24.8z M53.5,46.6c0,1.4-0.4,1.8-1.8,1.8h-48c-1.4,0-1.8-0.4-1.8-1.8c0-5.6,0-11.1,0-16.7v-0.6h14.3V30c0,1.8,0,3.6,0,5.4
		c0,0.5,0.1,0.7,0.7,0.7c5.8,0,11.6,0,17.4,0h4.9v-6.6h14.3V46.6z"/>
	
		<linearGradient id="SVGID_00000074440588584680324660000011424601463773298072_" gradientUnits="userSpaceOnUse" x1="27.7125" y1="-10.2627" x2="27.7125" y2="62.0456">
		<stop  offset="0" style="stop-color:#A31C9E"/>
		<stop  offset="1" style="stop-color:#00CCFA"/>
	</linearGradient>
	<path style="fill:url(#SVGID_00000074440588584680324660000011424601463773298072_);" d="M36.1,21.3c-0.1,0.1-0.1,0.1-0.2,0.2
		c-2.7,2.7-5.3,5.4-8,8c0,0-0.1,0.1-0.2,0.1c-0.1-0.1-0.2-0.2-0.4-0.3c-2.6-2.6-5.1-5.1-7.7-7.7c-0.1-0.1-0.2-0.2-0.3-0.3l1.5-1.2
		c0.1,0.1,0.1,0.1,0.2,0.2c1.7,1.7,3.5,3.5,5.2,5.2c0.1,0.1,0.3,0.3,0.5,0.5v-0.7c0-8.4,0-16.7,0-25.1c0-0.1,0-0.1,0-0.2h1.9
		c0,0.1,0,0.1,0,0.2c0,8.4,0,16.7,0,25.1V26c0.2-0.2,0.4-0.3,0.5-0.5c1.7-1.7,3.5-3.5,5.2-5.2c0.1-0.1,0.1-0.1,0.2-0.2L36.1,21.3z"
		/>
	
		<linearGradient id="SVGID_00000094592756070661704320000012560176487887517880_" gradientUnits="userSpaceOnUse" x1="2.7392" y1="-10.2627" x2="2.7392" y2="62.0456">
		<stop  offset="0" style="stop-color:#A31C9E"/>
		<stop  offset="1" style="stop-color:#00CCFA"/>
	</linearGradient>
	<path style="fill:url(#SVGID_00000094592756070661704320000012560176487887517880_);" d="M2.8,23.8l-0.1,0.2
		C2.7,24,2.8,23.9,2.8,23.8L2.8,23.8z"/>
</g>
</svg>
