<?xml version="1.0" encoding="utf-8"?>
<!-- Generator: Adobe Illustrator 27.6.1, SVG Export Plug-In . SVG Version: 6.00 Build 0)  -->
<svg version="1.1" id="Layer_1" xmlns="http://www.w3.org/2000/svg" xmlns:xlink="http://www.w3.org/1999/xlink" x="0px" y="0px"
	 viewBox="0 0 166.1 165.9" style="enable-background:new 0 0 166.1 165.9;" xml:space="preserve">
<style type="text/css">
	.st0{fill:url(#SVGID_1_);}
	.st1{fill:url(#SVGID_00000087370313148221297790000017420799899641241245_);}
	.st2{clip-path:url(#SVGID_00000106861635476267221430000006565147834674043816_);}
	.st3{fill:#211259;}
	.st4{fill:#7D24AB;}
	.st5{fill:#006EC2;}
	.st6{fill:#A31C9E;}
	.st7{fill:#00CCFA;}
	.st8{fill:#808285;}
	.st9{fill:url(#SVGID_00000112626377044657491590000007408471250225492659_);}
	.st10{fill:url(#SVGID_00000096058583641165638630000006208511772419695029_);}
	.st11{fill:url(#SVGID_00000096037818530490883340000017384856626412870274_);}
	.st12{fill:url(#SVGID_00000045609436389089009000000004507394726806850724_);}
	.st13{fill:url(#SVGID_00000150069766711034373020000003153804433224245122_);}
	.st14{fill:url(#SVGID_00000008131056010078237180000015891616593925350022_);}
	.st15{fill:url(#SVGID_00000178189597177655400820000017887655398477455257_);}
	.st16{fill:url(#SVGID_00000000909010908088599340000009396266018245621138_);}
	
		.st17{fill:none;stroke:url(#SVGID_00000083773434491496199360000006670734825391731097_);stroke-width:1.7317;stroke-miterlimit:10;}
	.st18{fill:url(#SVGID_00000157990035185034069490000011932590365131511194_);}
	.st19{fill:url(#SVGID_00000137132190525043853880000001572457582207386261_);}
	.st20{fill:url(#SVGID_00000114072731389464403810000016293164331354070710_);}
	.st21{fill:url(#SVGID_00000050645430003255843840000011820425415389742245_);}
	.st22{fill:url(#SVGID_00000020370342719475542180000013242163170151847072_);}
	.st23{fill:url(#SVGID_00000139988063844210408640000000014024053769168288_);}
	.st24{fill:url(#SVGID_00000112602292084908799570000009435695334593021833_);}
	.st25{fill:none;stroke:url(#SVGID_00000147183541003611670540000006676879114037592217_);stroke-width:3;stroke-miterlimit:10;}
	.st26{fill:url(#SVGID_00000039822606235384930330000016497045996890375319_);}
	.st27{fill:none;stroke:url(#SVGID_00000176727916926699539890000002996766861287268758_);stroke-width:3;stroke-miterlimit:10;}
	.st28{fill:none;stroke:url(#SVGID_00000093165405253184838340000002920373037902045353_);stroke-width:3;stroke-miterlimit:10;}
	.st29{fill:none;stroke:url(#SVGID_00000083054183256900279780000014440705123833803711_);stroke-width:3;stroke-miterlimit:10;}
	
		.st30{fill:none;stroke:url(#SVGID_00000023270115409884193910000000521980209848215740_);stroke-width:3.1105;stroke-miterlimit:10;}
	.st31{clip-path:url(#SVGID_00000176747619649001647070000000201544326734640544_);}
	.st32{clip-path:url(#SVGID_00000000197167173819348520000016144624566922096035_);}
	.st33{clip-path:url(#SVGID_00000152261423255672308590000003104493399854569373_);}
	.st34{clip-path:url(#SVGID_00000039843759898842336460000002563615636915180988_);}
	.st35{clip-path:url(#SVGID_00000074414552591603557260000005059092197563357608_);}
	.st36{fill:url(#SVGID_00000145046966974195755240000007624360373031464378_);}
	.st37{clip-path:url(#SVGID_00000114790722446877394980000011416362605069653140_);}
	.st38{fill:url(#SVGID_00000054952382049378230130000014005605359629120916_);}
	.st39{clip-path:url(#SVGID_00000063595942611299486390000011426303854734189975_);}
	.st40{fill:url(#SVGID_00000111872395564376149590000014469185668269182080_);}
	.st41{clip-path:url(#SVGID_00000039842794527214057180000004276096837648950181_);}
	.st42{clip-path:url(#SVGID_00000137840768223506153870000014628688097829093311_);}
	.st43{fill:url(#SVGID_00000106105303232938067290000015595960755555647164_);}
	.st44{fill:#FFFFFF;}
</style>
<g>
	<g>
		<polygon class="st3" points="70.7,91.8 53,81.6 53,61.2 70.7,71.4 		"/>
		<polygon class="st3" points="70.7,30.6 53,40.8 53,61.2 70.7,51 		"/>
		<polygon class="st3" points="88.4,0 70.7,10.2 70.7,30.6 88.4,20.4 		"/>
		<polygon class="st3" points="35.3,30.6 17.7,40.8 17.7,61.2 35.3,51 		"/>
		<polygon class="st4" points="53,61.2 35.3,51 35.3,30.6 53,40.8 		"/>
		<polygon class="st5" points="123.7,61.2 106,51 106,30.6 123.7,40.8 		"/>
		<polygon class="st6" points="0,91.8 0,91.8 17.7,102 35.3,91.8 17.7,81.6 		"/>
		<polygon class="st6" points="35.3,91.8 35.3,91.8 53,102 70.7,91.8 53,81.6 		"/>
		<polygon class="st7" points="53,61.2 53,61.2 70.7,71.4 88.4,61.2 70.7,51 		"/>
		<polygon class="st7" points="88.4,61.2 88.4,61.2 106,71.4 123.7,61.2 106,51 		"/>
	</g>
	<g>
		<path class="st8" d="M70.7,106.3c0,3.4,0,21.3,0,26.1l-17.8,0c-0.2,0-0.3,0.1-0.4,0.2l-5.3,8.9c-0.2,0.3-0.2,0.4-0.1,0.6
			c0.1,0.2,0.3,0.4,0.5,0.4h60.8c2.8-0.1,5.2-1.4,6.7-3.4c1.6,2,4,3.3,6.7,3.4l43.5,0c0.3,0,0.6-0.3,0.6-0.6v-9
			c0-0.2-0.1-0.3-0.2-0.4c-0.1-0.1-0.3-0.2-0.4-0.2h-23.1l0-14.2c0-1.3,1-2.3,2.2-2.3l15.5,0c0.2,0,0.3-0.1,0.4-0.2l5.3-9
			c0.2-0.3,0.2-0.4,0.1-0.6c-0.1-0.2-0.3-0.4-0.5-0.4h-23.5c-5.3,0-9.8,4.2-9.8,9.2v17.5h-8.8v0V87.9c0-0.2-0.1-0.5-0.4-0.5
			c-0.2-0.1-0.3,0-0.6,0.1l-8.9,5.3c-0.1,0.1-0.2,0.3-0.2,0.4v39.1v0h-8.8v-17.6c0-4.9-4.4-9.1-9.7-9.1H71.3
			C70.7,105.7,70.7,106.3,70.7,106.3 M94.5,132.3H83.1h0c-1.2,0-2.3-1-2.3-2.2v0v-14.2h11.4c1.2,0,2.2,1,2.2,2.3V132.3z"/>
		<g>
			<path class="st8" d="M127.5,149.5c0-0.2,0.1-0.2,0.2-0.2h10.6c0.2,0,0.2,0.1,0.2,0.2v2.6c0,0.2-0.1,0.2-0.2,0.2h-7.1
				c-0.1,0-0.1,0.1-0.1,0.1v3.3c0,0.1,0.1,0.1,0.1,0.1h5.9c0.2,0,0.2,0.1,0.2,0.2v2.6c0,0.2-0.1,0.2-0.2,0.2h-5.9
				c-0.1,0-0.1,0-0.1,0.1v3.4c0,0.1,0.1,0.1,0.1,0.1h7.1c0.2,0,0.2,0.1,0.2,0.2v2.6c0,0.2-0.1,0.2-0.2,0.2h-10.6
				c-0.2,0-0.2-0.1-0.2-0.2V149.5z"/>
			<path class="st8" d="M144.7,165.9c-1.3,0-2.2-0.3-2.8-0.9c-0.6-0.6-0.8-1.5-0.8-2.9v-12.7c0-0.2,0.1-0.2,0.2-0.2h2.9
				c0.2,0,0.2,0.1,0.2,0.2v12.4c0,0.4,0.1,0.7,0.2,0.9c0.2,0.2,0.4,0.3,0.8,0.3h0.5c0.2,0,0.2,0.1,0.2,0.2v2.4
				c0,0.2-0.1,0.2-0.2,0.2H144.7z"/>
			<path class="st8" d="M162.9,165.8c-0.2,0-0.2-0.1-0.2-0.2v-6.8c0-0.6-0.2-1.2-0.5-1.6c-0.3-0.4-0.8-0.6-1.4-0.6
				c-0.6,0-1,0.2-1.3,0.6c-0.3,0.4-0.5,0.9-0.5,1.6v6.8c0,0.2-0.1,0.2-0.2,0.2h-2.9c-0.2,0-0.2-0.1-0.2-0.2v-6.8
				c0-0.6-0.2-1.2-0.4-1.6c-0.3-0.4-0.8-0.6-1.4-0.6c-0.6,0-1,0.2-1.4,0.6c-0.3,0.4-0.5,0.9-0.5,1.6v6.8c0,0.2-0.1,0.2-0.2,0.2h-2.9
				c-0.2,0-0.2-0.1-0.2-0.2v-11.3c0-0.2,0.1-0.2,0.2-0.2h2.9c0.2,0,0.2,0.1,0.2,0.2v0.8h0c0.3-0.4,0.7-0.7,1.2-0.9
				c0.5-0.3,1.1-0.4,1.9-0.4c1.4,0,2.5,0.5,3.2,1.5h0c0.4-0.5,1-0.8,1.6-1.1c0.6-0.3,1.3-0.4,2.1-0.4c1.4,0,2.4,0.4,3.1,1.2
				c0.7,0.8,1.1,1.9,1.1,3.2v7.4c0,0.2-0.1,0.2-0.2,0.2H162.9z"/>
		</g>
	</g>
</g>
</svg>
