<?xml version="1.0" encoding="utf-8"?>
<!-- Generator: Adobe Illustrator 27.6.1, SVG Export Plug-In . SVG Version: 6.00 Build 0)  -->
<svg version="1.1" id="Layer_1" xmlns="http://www.w3.org/2000/svg" xmlns:xlink="http://www.w3.org/1999/xlink" x="0px" y="0px"
	 viewBox="0 0 110.5 110.4" style="enable-background:new 0 0 110.5 110.4;" xml:space="preserve">
<style type="text/css">
	.st0{fill:url(#SVGID_1_);}
	.st1{fill:url(#SVGID_00000119829594001801789830000015491447796995422389_);}
	.st2{clip-path:url(#SVGID_00000089557334738732284360000015933978469974579880_);}
	.st3{fill:#211259;}
	.st4{fill:#7D24AB;}
	.st5{fill:#006EC2;}
	.st6{fill:#A31C9E;}
	.st7{fill:#00CCFA;}
	.st8{fill:#808285;}
	.st9{fill:url(#SVGID_00000065053615586480020510000002626925016088995492_);}
	.st10{fill:url(#SVGID_00000003784964447220268750000004111737508215570078_);}
	.st11{fill:url(#SVGID_00000053537041668021490770000016008927621305915286_);}
	.st12{fill:url(#SVGID_00000014627241963140195480000002298607329079656104_);}
	.st13{fill:url(#SVGID_00000064345683657270510020000005684197266986383767_);}
	.st14{fill:url(#SVGID_00000116936092808511028700000004319464217440398263_);}
	.st15{fill:url(#SVGID_00000145751218653877028440000001036401488827725731_);}
	.st16{fill:url(#SVGID_00000171684914176647551400000009829468056476259494_);}
	
		.st17{fill:none;stroke:url(#SVGID_00000116944763565751972450000003038175347812735914_);stroke-width:1.7317;stroke-miterlimit:10;}
	.st18{fill:url(#SVGID_00000031887895596704616290000001635020448219846846_);}
	.st19{fill:url(#SVGID_00000029008975812814368640000010000201876016576416_);}
	.st20{fill:url(#SVGID_00000024691176938140365570000011800205006290816640_);}
	.st21{fill:url(#SVGID_00000129177537674799411940000012954627806834787247_);}
	.st22{fill:url(#SVGID_00000086649512531339677220000006907362024533271968_);}
	.st23{fill:url(#SVGID_00000047045972863066496880000016370517972854060700_);}
	.st24{fill:url(#SVGID_00000154418460640154704470000006210027101686239369_);}
	.st25{fill:none;stroke:url(#SVGID_00000116930299472491986370000015535982399061624763_);stroke-width:3;stroke-miterlimit:10;}
	.st26{fill:url(#SVGID_00000013889771879598238620000006641937986366603948_);}
	.st27{fill:none;stroke:url(#SVGID_00000063612601973453462630000007454285269438570628_);stroke-width:3;stroke-miterlimit:10;}
	.st28{fill:none;stroke:url(#SVGID_00000077324522217307195630000014548278145896021383_);stroke-width:3;stroke-miterlimit:10;}
	.st29{fill:none;stroke:url(#SVGID_00000023243147110506770960000011438588985219901833_);stroke-width:3;stroke-miterlimit:10;}
	
		.st30{fill:none;stroke:url(#SVGID_00000140000816026627378360000003367272501235101850_);stroke-width:3.1105;stroke-miterlimit:10;}
	.st31{clip-path:url(#SVGID_00000179627761402571263820000008624586604004951998_);}
	.st32{clip-path:url(#SVGID_00000101096033619066199670000012189751482907245213_);}
	.st33{clip-path:url(#SVGID_00000147184275956008540300000018029804610129655479_);}
	.st34{clip-path:url(#SVGID_00000080166393567377088240000013291051103370955147_);}
	.st35{clip-path:url(#SVGID_00000159427756627557637900000001956496584089156028_);}
	.st36{fill:url(#SVGID_00000079457146301980087940000001534731389171243927_);}
	.st37{clip-path:url(#SVGID_00000065043220860467435270000006631598851509158055_);}
	.st38{fill:url(#SVGID_00000061446712657470595290000004686581798530348431_);}
	.st39{clip-path:url(#SVGID_00000139276773277414737550000009047409937811981753_);}
	.st40{fill:url(#SVGID_00000065064663395302309370000004281455238893244837_);}
	.st41{clip-path:url(#SVGID_00000132787737481977628980000001870501341899937982_);}
	.st42{clip-path:url(#SVGID_00000114762218404124830680000010908746750523667334_);}
	.st43{fill:url(#SVGID_00000159451970413104619840000002292962112560641159_);}
	.st44{fill:#FFFFFF;}
</style>
<g>
	<g>
		<polygon class="st44" points="47,61.1 35.3,54.3 35.3,40.7 47,47.5 		"/>
		<polygon class="st44" points="47,20.4 35.3,27.2 35.3,40.7 47,33.9 		"/>
		<polygon class="st44" points="58.8,0 47,6.8 47,20.4 58.8,13.6 		"/>
		<polygon class="st44" points="23.5,20.4 11.8,27.2 11.8,40.7 23.5,33.9 		"/>
		<polygon class="st44" points="35.3,40.7 23.5,33.9 23.5,20.4 35.3,27.2 		"/>
		<polygon class="st44" points="82.3,40.7 70.5,33.9 70.5,20.4 82.3,27.2 		"/>
		<polygon class="st44" points="0,61.1 0,61.1 11.8,67.9 23.5,61.1 11.8,54.3 		"/>
		<polygon class="st44" points="23.5,61.1 23.5,61.1 35.3,67.9 47,61.1 35.3,54.3 		"/>
		<polygon class="st44" points="35.3,40.7 35.3,40.7 47,47.5 58.8,40.7 47,33.9 		"/>
		<polygon class="st44" points="58.8,40.7 58.8,40.7 70.5,47.5 82.3,40.7 70.5,33.9 		"/>
	</g>
	<g>
		<path class="st44" d="M47,70.7c0,2.3,0,14.2,0,17.3l-11.8,0c-0.1,0-0.2,0-0.3,0.1l-3.5,5.9c-0.1,0.2-0.1,0.3-0.1,0.4
			c0.1,0.1,0.2,0.2,0.4,0.2h40.5c1.8,0,3.4-0.9,4.5-2.3c1,1.3,2.6,2.2,4.5,2.3l29,0c0.2,0,0.4-0.2,0.4-0.4v-6c0-0.1,0-0.2-0.1-0.3
			c-0.1-0.1-0.2-0.1-0.3-0.1H94.7l0-9.4c0-0.8,0.7-1.5,1.5-1.5l10.3,0c0.1,0,0.2,0,0.3-0.1l3.5-6c0.1-0.2,0.1-0.3,0.1-0.4
			c-0.1-0.1-0.2-0.2-0.4-0.2H94.4c-3.5,0-6.5,2.8-6.5,6.1V88h-5.8v0V58.5c0-0.2-0.1-0.3-0.2-0.4c-0.1-0.1-0.2,0-0.4,0.1l-6,3.5
			c-0.1,0.1-0.1,0.2-0.1,0.3v26v0h-5.8V76.4c0-3.3-3-6-6.4-6H47.4C47.1,70.3,47,70.7,47,70.7 M62.9,88h-7.6h0
			c-0.8,0-1.5-0.7-1.5-1.5v0v-9.4h7.6c0.8,0,1.5,0.7,1.5,1.5V88z"/>
		<g>
			<path class="st44" d="M84.8,99.5c0-0.1,0.1-0.2,0.2-0.2h7c0.1,0,0.2,0.1,0.2,0.2v1.7c0,0.1-0.1,0.2-0.2,0.2h-4.7
				c-0.1,0-0.1,0-0.1,0.1v2.2c0,0.1,0,0.1,0.1,0.1h3.9c0.1,0,0.2,0.1,0.2,0.2v1.7c0,0.1-0.1,0.2-0.2,0.2h-3.9c-0.1,0-0.1,0-0.1,0.1
				v2.3c0,0.1,0,0.1,0.1,0.1H92c0.1,0,0.2,0.1,0.2,0.2v1.7c0,0.1-0.1,0.2-0.2,0.2h-7c-0.1,0-0.2-0.1-0.2-0.2V99.5z"/>
			<path class="st44" d="M96.3,110.4c-0.9,0-1.5-0.2-1.9-0.6c-0.4-0.4-0.6-1-0.6-1.9v-8.4c0-0.1,0.1-0.2,0.2-0.2H96
				c0.1,0,0.2,0.1,0.2,0.2v8.3c0,0.3,0.1,0.5,0.2,0.6c0.1,0.1,0.3,0.2,0.5,0.2h0.3c0.1,0,0.2,0.1,0.2,0.2v1.6c0,0.1-0.1,0.2-0.2,0.2
				H96.3z"/>
			<path class="st44" d="M108.4,110.3c-0.1,0-0.2-0.1-0.2-0.2v-4.5c0-0.4-0.1-0.8-0.3-1c-0.2-0.3-0.5-0.4-0.9-0.4
				c-0.4,0-0.7,0.1-0.9,0.4c-0.2,0.3-0.3,0.6-0.3,1v4.5c0,0.1-0.1,0.2-0.2,0.2h-1.9c-0.1,0-0.2-0.1-0.2-0.2v-4.5
				c0-0.4-0.1-0.8-0.3-1c-0.2-0.3-0.5-0.4-0.9-0.4c-0.4,0-0.7,0.1-0.9,0.4c-0.2,0.3-0.3,0.6-0.3,1v4.5c0,0.1-0.1,0.2-0.2,0.2H99
				c-0.1,0-0.2-0.1-0.2-0.2v-7.5c0-0.1,0.1-0.2,0.2-0.2h1.9c0.1,0,0.2,0.1,0.2,0.2v0.6h0c0.2-0.2,0.4-0.5,0.8-0.6
				c0.3-0.2,0.7-0.3,1.3-0.3c0.9,0,1.6,0.3,2.1,1h0c0.3-0.3,0.6-0.6,1-0.7c0.4-0.2,0.9-0.3,1.4-0.3c0.9,0,1.6,0.3,2.1,0.8
				c0.5,0.5,0.7,1.2,0.7,2.1v4.9c0,0.1-0.1,0.2-0.2,0.2H108.4z"/>
		</g>
	</g>
</g>
</svg>
