<?xml version="1.0" encoding="utf-8"?>
<!-- Generator: Adobe Illustrator 24.3.0, SVG Export Plug-In . SVG Version: 6.00 Build 0)  -->
<svg version="1.1" id="Layer_1" xmlns="http://www.w3.org/2000/svg" xmlns:xlink="http://www.w3.org/1999/xlink" x="0px" y="0px"
	 viewBox="0 0 98.37 97.01" style="enable-background:new 0 0 98.37 97.01;" xml:space="preserve">
<style type="text/css">
	.st0{fill:#211259;}
	.st1{fill:#8682D3;}
	.st2{fill:url(#SVGID_1_);}
	.st3{fill:url(#SVGID_2_);}
	.st4{fill:url(#SVGID_5_);}
	.st5{opacity:0.7;fill:#FFFFFF;}
	.st6{opacity:0.15;fill:#FFFFFF;}
	.st7{fill:url(#SVGID_6_);}
	.st8{clip-path:url(#SVGID_8_);}
	.st9{fill:url(#SVGID_11_);}
	.st10{fill:#FFFFFF;}
	.st11{fill:none;stroke:url(#SVGID_12_);stroke-width:1.7427;stroke-miterlimit:10;}
	.st12{fill:url(#SVGID_13_);}
	.st13{fill:url(#SVGID_14_);}
	.st14{fill:url(#SVGID_15_);}
	.st15{fill:url(#SVGID_16_);}
	.st16{fill:url(#SVGID_17_);}
	.st17{fill:url(#SVGID_18_);}
	.st18{fill:url(#SVGID_19_);}
	.st19{fill:url(#SVGID_20_);}
	.st20{fill:url(#SVGID_21_);}
	.st21{fill:url(#SVGID_22_);}
	.st22{fill:url(#SVGID_23_);}
	.st23{fill:url(#SVGID_24_);}
	.st24{fill:url(#SVGID_25_);}
	.st25{fill:url(#SVGID_26_);}
	.st26{fill:url(#SVGID_27_);}
	.st27{fill:url(#SVGID_28_);}
	.st28{fill:url(#SVGID_29_);}
	.st29{fill:url(#SVGID_30_);}
	.st30{fill:url(#SVGID_31_);}
	.st31{fill:url(#SVGID_32_);}
	.st32{fill:url(#SVGID_33_);}
	.st33{fill:url(#SVGID_34_);}
	.st34{fill:url(#SVGID_35_);}
	.st35{fill:url(#SVGID_36_);}
	.st36{fill:url(#SVGID_37_);}
	.st37{fill:url(#SVGID_38_);}
	.st38{fill:url(#SVGID_39_);}
	.st39{fill:url(#SVGID_40_);}
	.st40{fill:url(#SVGID_41_);}
	.st41{fill:url(#SVGID_42_);}
	.st42{fill:url(#SVGID_43_);}
	.st43{fill:url(#SVGID_44_);}
	.st44{fill:url(#SVGID_45_);}
	.st45{fill:url(#SVGID_46_);}
	.st46{fill:url(#SVGID_47_);}
	.st47{fill:url(#SVGID_48_);}
	.st48{fill:url(#SVGID_49_);}
	.st49{fill:url(#SVGID_50_);}
	.st50{fill:url(#SVGID_51_);}
	.st51{fill:url(#SVGID_52_);}
	.st52{fill:url(#SVGID_53_);}
	.st53{fill:#7D24AB;}
	.st54{fill:#006EC2;}
	.st55{fill:#A31C9E;}
	.st56{fill:#00CCFA;}
	.st57{fill:#808285;}
	.st58{fill:url(#SVGID_54_);}
	.st59{fill:url(#SVGID_55_);}
	.st60{fill:url(#SVGID_56_);}
	.st61{fill:url(#SVGID_57_);}
	.st62{fill:url(#SVGID_58_);}
	.st63{fill:url(#SVGID_59_);}
	.st64{fill:url(#SVGID_60_);}
	.st65{fill:url(#SVGID_61_);}
	.st66{fill:url(#SVGID_62_);}
	.st67{fill:url(#SVGID_63_);}
	.st68{fill:url(#SVGID_64_);}
	.st69{fill:url(#SVGID_65_);}
	.st70{fill:url(#SVGID_66_);}
	.st71{fill:url(#SVGID_67_);}
	.st72{fill:url(#SVGID_68_);}
	.st73{fill:url(#SVGID_69_);}
	.st74{fill:url(#SVGID_70_);}
	.st75{fill:url(#SVGID_71_);}
	.st76{fill:url(#SVGID_72_);}
	.st77{fill:url(#SVGID_73_);}
	.st78{fill:url(#SVGID_74_);}
	.st79{fill:url(#SVGID_75_);}
	.st80{fill:url(#SVGID_76_);}
	.st81{fill:url(#SVGID_77_);}
	.st82{fill:url(#SVGID_78_);}
	.st83{fill:url(#SVGID_79_);}
	.st84{fill:url(#SVGID_80_);}
	.st85{fill:url(#SVGID_81_);}
	.st86{fill:url(#SVGID_82_);}
	.st87{fill:url(#SVGID_83_);}
	.st88{fill:url(#SVGID_84_);}
	.st89{fill:url(#SVGID_85_);}
	.st90{fill:url(#SVGID_86_);}
	.st91{fill:url(#SVGID_87_);}
	.st92{fill:url(#SVGID_88_);}
	.st93{fill:url(#SVGID_89_);}
	.st94{fill:url(#SVGID_90_);}
	.st95{fill:url(#SVGID_91_);}
	.st96{fill:url(#SVGID_92_);}
	.st97{fill:url(#SVGID_93_);}
	.st98{fill:url(#SVGID_94_);}
	.st99{fill:url(#SVGID_95_);}
	.st100{fill:url(#SVGID_96_);}
	.st101{fill:url(#SVGID_97_);}
	.st102{fill:url(#SVGID_98_);}
	.st103{fill:url(#SVGID_99_);}
	.st104{fill:url(#SVGID_100_);}
	.st105{fill:url(#SVGID_101_);}
	.st106{fill:url(#SVGID_102_);}
	.st107{fill:url(#SVGID_103_);}
	.st108{fill:url(#SVGID_104_);}
	.st109{fill:url(#SVGID_105_);}
	.st110{fill:url(#SVGID_106_);}
	.st111{fill:url(#SVGID_107_);}
	.st112{fill:url(#SVGID_108_);}
	.st113{fill:url(#SVGID_109_);}
	.st114{fill:url(#SVGID_110_);}
	.st115{fill:url(#SVGID_111_);}
	.st116{fill:url(#SVGID_112_);}
	.st117{fill:url(#SVGID_113_);}
	.st118{fill:url(#SVGID_114_);}
	.st119{fill:url(#SVGID_115_);}
	.st120{fill:url(#SVGID_116_);}
	.st121{fill:url(#SVGID_117_);}
	.st122{fill:url(#SVGID_118_);}
	.st123{fill:url(#SVGID_119_);}
	.st124{fill:url(#SVGID_120_);}
	.st125{fill:url(#SVGID_121_);}
	.st126{fill:url(#SVGID_122_);}
	.st127{fill:url(#SVGID_123_);}
	.st128{fill:url(#SVGID_124_);}
	.st129{fill:url(#SVGID_125_);}
	.st130{fill:url(#SVGID_126_);}
	.st131{fill:url(#SVGID_127_);}
	.st132{fill:url(#SVGID_128_);}
	.st133{fill:url(#SVGID_129_);}
	.st134{fill:url(#SVGID_130_);}
	.st135{fill:url(#SVGID_131_);}
	.st136{fill:url(#SVGID_132_);}
	.st137{fill:url(#SVGID_133_);}
	.st138{fill:url(#SVGID_134_);}
	.st139{fill:none;stroke:url(#SVGID_135_);stroke-width:1.7427;stroke-miterlimit:10;}
	.st140{fill:url(#SVGID_136_);}
	.st141{fill:url(#SVGID_137_);}
	.st142{fill:url(#SVGID_138_);}
	.st143{fill:url(#SVGID_139_);}
	.st144{fill:url(#SVGID_140_);}
	.st145{fill:url(#SVGID_141_);}
	.st146{fill:url(#SVGID_142_);}
	.st147{fill:url(#SVGID_143_);}
	.st148{fill:url(#SVGID_144_);}
	.st149{fill:url(#SVGID_145_);}
	.st150{fill:none;stroke:url(#SVGID_146_);stroke-width:0.5;stroke-miterlimit:10;}
	.st151{fill:none;stroke:url(#SVGID_147_);stroke-width:0.5;stroke-miterlimit:10;}
	.st152{fill:none;stroke:url(#SVGID_148_);stroke-width:3.7365;stroke-miterlimit:10;}
	.st153{fill:url(#SVGID_149_);}
	.st154{fill-rule:evenodd;clip-rule:evenodd;fill:#7D24AB;}
	.st155{fill:#FDFDFD;}
	.st156{fill:url(#SVGID_150_);}
	.st157{fill:url(#SVGID_151_);}
	.st158{fill:url(#SVGID_152_);}
	.st159{fill:none;stroke:url(#SVGID_153_);stroke-width:1.7317;stroke-miterlimit:10;}
	.st160{fill:url(#SVGID_154_);}
	.st161{clip-path:url(#SVGID_156_);}
	.st162{clip-path:url(#SVGID_158_);}
	.st163{clip-path:url(#SVGID_162_);}
	.st164{fill:none;stroke:url(#SVGID_163_);stroke-width:1.7427;stroke-miterlimit:10;}
	.st165{fill:none;stroke:url(#SVGID_164_);stroke-width:1.7427;stroke-miterlimit:10;}
	.st166{clip-path:url(#SVGID_166_);}
	.st167{fill:url(#SVGID_169_);}
	.st168{fill:url(#SVGID_174_);}
	.st169{fill:none;stroke:url(#SVGID_175_);stroke-width:1.7427;stroke-miterlimit:10;}
	.st170{clip-path:url(#SVGID_177_);}
	.st171{fill:none;stroke:url(#SVGID_180_);stroke-width:1.7427;stroke-miterlimit:10;}
	.st172{clip-path:url(#SVGID_182_);}
	.st173{clip-path:url(#SVGID_184_);}
	.st174{fill:url(#SVGID_187_);}
	.st175{fill:url(#SVGID_188_);}
	.st176{fill:url(#SVGID_189_);}
	.st177{fill:url(#SVGID_190_);}
	.st178{fill:url(#SVGID_191_);}
	.st179{fill:url(#SVGID_192_);}
	.st180{fill:url(#SVGID_193_);}
	.st181{fill:url(#SVGID_194_);}
	.st182{fill:url(#SVGID_195_);}
	.st183{fill:url(#SVGID_196_);}
	.st184{fill:url(#SVGID_197_);}
	.st185{fill:url(#SVGID_198_);}
	.st186{fill:url(#SVGID_199_);}
	.st187{fill:url(#SVGID_200_);}
	.st188{fill:url(#SVGID_201_);}
	.st189{fill:url(#SVGID_202_);}
	.st190{fill:url(#SVGID_203_);}
	.st191{fill:url(#SVGID_204_);}
	.st192{fill:url(#SVGID_205_);}
	.st193{fill:url(#SVGID_206_);}
	.st194{fill:url(#SVGID_207_);}
	.st195{fill:url(#SVGID_208_);}
	.st196{fill:url(#SVGID_209_);}
	.st197{clip-path:url(#SVGID_211_);}
	.st198{clip-path:url(#SVGID_213_);}
	.st199{fill:url(#SVGID_216_);}
	.st200{clip-path:url(#SVGID_211_);fill:url(#SVGID_221_);}
	.st201{clip-path:url(#SVGID_223_);}
	.st202{clip-path:url(#SVGID_227_);}
	.st203{clip-path:url(#SVGID_229_);}
	.st204{fill:url(#SVGID_232_);}
	.st205{fill:url(#SVGID_233_);}
	.st206{clip-path:url(#SVGID_235_);}
	.st207{fill:url(#SVGID_238_);}
	.st208{fill:url(#SVGID_243_);}
	.st209{clip-path:url(#SVGID_245_);}
	.st210{clip-path:url(#SVGID_249_);}
	.st211{clip-path:url(#SVGID_251_);}
	.st212{fill:url(#SVGID_254_);}
	.st213{fill:url(#SVGID_255_);}
	.st214{fill:none;stroke:url(#SVGID_256_);stroke-width:1.7427;stroke-miterlimit:10;}
	.st215{fill:none;stroke:url(#SVGID_257_);stroke-width:0.5;stroke-miterlimit:10;}
	.st216{fill:url(#SVGID_258_);}
	.st217{fill:url(#SVGID_259_);}
	.st218{fill:url(#SVGID_260_);}
	.st219{fill:url(#SVGID_261_);}
	.st220{fill:url(#SVGID_262_);}
	.st221{fill:url(#SVGID_263_);}
	.st222{fill:url(#SVGID_264_);}
	.st223{fill:url(#SVGID_265_);}
	.st224{fill:url(#SVGID_266_);}
	.st225{fill:url(#SVGID_267_);}
	.st226{fill:url(#SVGID_268_);}
	.st227{fill:url(#SVGID_269_);}
	.st228{fill:url(#SVGID_270_);}
	.st229{fill:url(#SVGID_271_);}
	.st230{fill:url(#SVGID_272_);}
	.st231{fill:url(#SVGID_273_);}
	.st232{fill:url(#SVGID_274_);}
	.st233{fill:url(#SVGID_275_);}
	.st234{fill:url(#SVGID_276_);}
	.st235{fill:url(#SVGID_277_);}
	.st236{fill:url(#SVGID_278_);}
	.st237{fill:url(#SVGID_279_);}
	.st238{fill:url(#SVGID_280_);}
	.st239{fill:url(#SVGID_281_);}
	.st240{fill:url(#SVGID_282_);}
	.st241{fill:url(#SVGID_283_);}
	.st242{fill:url(#SVGID_284_);}
	.st243{fill:url(#SVGID_285_);}
	.st244{fill:url(#SVGID_286_);}
	.st245{fill:url(#SVGID_287_);}
	.st246{fill:url(#SVGID_288_);}
	.st247{fill:url(#SVGID_289_);}
	.st248{fill:url(#SVGID_290_);}
	.st249{fill:url(#SVGID_291_);}
	.st250{fill:url(#SVGID_292_);}
	.st251{fill:url(#SVGID_293_);}
	.st252{fill:url(#SVGID_294_);}
	.st253{fill:url(#SVGID_295_);}
	.st254{fill:url(#SVGID_296_);}
	.st255{fill:url(#SVGID_297_);}
	.st256{fill:url(#SVGID_298_);}
	.st257{fill:url(#SVGID_299_);}
	.st258{fill:url(#SVGID_300_);}
	.st259{fill:url(#SVGID_301_);}
	.st260{fill:url(#SVGID_302_);}
	.st261{fill:url(#SVGID_303_);}
	.st262{fill:url(#SVGID_304_);}
	.st263{fill:url(#SVGID_305_);}
	.st264{fill:url(#SVGID_306_);}
	.st265{fill:url(#SVGID_307_);}
	.st266{fill:url(#SVGID_308_);}
	.st267{fill:url(#SVGID_309_);}
	.st268{fill:url(#SVGID_310_);}
	.st269{fill:url(#SVGID_311_);}
	.st270{fill:url(#SVGID_312_);}
	.st271{fill:url(#SVGID_313_);}
	.st272{fill:url(#SVGID_314_);}
	.st273{fill:url(#SVGID_315_);}
	.st274{fill:url(#SVGID_316_);}
	.st275{fill:url(#SVGID_317_);}
	.st276{fill:url(#SVGID_318_);}
	.st277{fill:url(#SVGID_319_);}
	.st278{fill:url(#SVGID_320_);}
	.st279{fill:url(#SVGID_321_);}
	.st280{fill:url(#SVGID_322_);}
	.st281{fill:url(#SVGID_323_);}
	.st282{fill:url(#SVGID_324_);}
	.st283{fill:url(#SVGID_325_);}
	.st284{fill:url(#SVGID_326_);}
	.st285{fill:url(#SVGID_327_);}
	.st286{fill:url(#SVGID_328_);}
	.st287{fill:url(#SVGID_329_);}
	.st288{fill:url(#SVGID_330_);}
	.st289{fill:url(#SVGID_331_);}
	.st290{fill:url(#SVGID_332_);}
	.st291{fill:url(#SVGID_333_);}
	.st292{fill:url(#SVGID_334_);}
	.st293{fill:url(#SVGID_335_);}
	.st294{fill:url(#SVGID_336_);}
	.st295{fill:url(#SVGID_337_);}
	.st296{fill:url(#SVGID_338_);}
	.st297{fill:url(#SVGID_339_);}
	.st298{fill:url(#SVGID_340_);}
	.st299{fill:url(#SVGID_341_);}
	.st300{fill:url(#SVGID_342_);}
	.st301{fill:url(#SVGID_343_);}
	.st302{fill:url(#SVGID_344_);}
	.st303{fill:url(#SVGID_345_);}
	.st304{fill:url(#SVGID_346_);}
	.st305{fill:url(#SVGID_347_);}
	.st306{fill:url(#SVGID_348_);}
	.st307{fill:url(#SVGID_349_);}
	.st308{fill:url(#SVGID_350_);}
	.st309{fill:url(#SVGID_351_);}
	.st310{fill:url(#SVGID_352_);}
	.st311{fill:url(#SVGID_353_);}
	.st312{fill:url(#SVGID_354_);}
	.st313{fill:url(#SVGID_355_);}
	.st314{fill:url(#SVGID_356_);}
	.st315{fill:url(#SVGID_357_);}
	.st316{fill:url(#SVGID_358_);}
	.st317{fill:url(#SVGID_359_);}
	.st318{fill:url(#SVGID_360_);}
	.st319{fill:url(#SVGID_361_);}
	.st320{fill:url(#SVGID_362_);}
	.st321{fill:url(#SVGID_363_);}
	.st322{fill:url(#SVGID_364_);}
	.st323{fill:url(#SVGID_365_);}
	.st324{fill:url(#SVGID_366_);}
	.st325{fill:url(#SVGID_367_);}
	.st326{fill:url(#SVGID_368_);}
	.st327{fill:url(#SVGID_369_);}
	.st328{fill:url(#SVGID_370_);}
	.st329{fill:url(#SVGID_371_);}
	.st330{fill:url(#SVGID_372_);}
	.st331{fill:url(#SVGID_373_);}
	.st332{fill:url(#SVGID_374_);}
	.st333{fill:url(#SVGID_375_);}
	.st334{fill:url(#SVGID_376_);}
	.st335{fill:url(#SVGID_377_);}
	.st336{fill:url(#SVGID_378_);}
	.st337{fill:url(#SVGID_379_);}
	.st338{fill:url(#SVGID_380_);}
	.st339{fill:url(#SVGID_381_);}
	.st340{fill:url(#SVGID_382_);}
	.st341{fill:url(#SVGID_383_);}
	.st342{fill:url(#SVGID_384_);}
	.st343{fill:url(#SVGID_385_);}
	.st344{fill:url(#SVGID_386_);}
	.st345{fill:url(#SVGID_387_);}
	.st346{fill:url(#SVGID_388_);}
	.st347{fill:url(#SVGID_389_);}
	.st348{fill:url(#SVGID_390_);}
	.st349{fill:url(#SVGID_391_);}
	.st350{fill:url(#SVGID_392_);}
	.st351{fill:url(#SVGID_393_);}
	.st352{fill:url(#SVGID_394_);}
	.st353{fill:url(#SVGID_395_);}
	.st354{fill:url(#SVGID_396_);}
	.st355{fill:url(#SVGID_397_);}
	.st356{fill:url(#SVGID_398_);}
	.st357{fill:url(#SVGID_399_);}
	.st358{fill:url(#SVGID_400_);}
	.st359{fill:url(#SVGID_401_);}
	.st360{fill:url(#SVGID_402_);}
	.st361{fill:url(#SVGID_403_);}
	.st362{fill:url(#SVGID_404_);}
	.st363{fill:url(#SVGID_405_);}
	.st364{fill:url(#SVGID_406_);}
	.st365{fill:url(#SVGID_407_);}
	.st366{fill:url(#SVGID_408_);}
	.st367{fill:url(#SVGID_409_);}
	.st368{fill:url(#SVGID_410_);}
	.st369{fill:url(#SVGID_411_);}
	.st370{fill:url(#SVGID_412_);}
	.st371{fill:url(#SVGID_413_);}
	.st372{fill:url(#SVGID_414_);}
	.st373{fill:url(#SVGID_415_);}
	.st374{fill:url(#SVGID_416_);}
	.st375{fill:url(#SVGID_417_);}
	.st376{fill:url(#SVGID_418_);}
	.st377{fill:url(#SVGID_419_);}
	.st378{fill:url(#SVGID_420_);}
	.st379{fill:url(#SVGID_421_);}
	.st380{fill:url(#SVGID_422_);}
	.st381{fill:url(#SVGID_423_);}
	.st382{fill:url(#SVGID_424_);}
	.st383{fill:url(#SVGID_425_);}
	.st384{fill:url(#SVGID_426_);}
	.st385{fill:url(#SVGID_427_);}
	.st386{fill:url(#SVGID_428_);}
	.st387{fill:url(#SVGID_429_);}
	.st388{fill:url(#SVGID_430_);}
	.st389{fill:url(#SVGID_431_);}
	.st390{fill:url(#SVGID_432_);}
	.st391{fill:url(#SVGID_433_);}
	.st392{fill:url(#SVGID_434_);}
	.st393{fill:url(#SVGID_435_);}
	.st394{fill:url(#SVGID_436_);}
	.st395{fill:url(#SVGID_437_);}
	.st396{fill:url(#SVGID_438_);}
	.st397{fill:url(#SVGID_439_);}
	.st398{fill:url(#SVGID_440_);}
	.st399{fill:url(#SVGID_441_);}
	.st400{fill:url(#SVGID_442_);}
	.st401{fill:none;stroke:url(#SVGID_443_);stroke-width:1.7427;stroke-miterlimit:10;}
	.st402{fill:url(#SVGID_444_);}
	.st403{fill:url(#SVGID_445_);}
	.st404{fill:url(#SVGID_446_);}
	.st405{fill:url(#SVGID_447_);}
	.st406{fill:url(#SVGID_448_);}
	.st407{fill:url(#SVGID_449_);}
	.st408{fill:url(#SVGID_450_);}
	.st409{fill:url(#SVGID_451_);}
	.st410{fill:url(#SVGID_452_);}
	.st411{fill:url(#SVGID_453_);}
	.st412{fill:url(#SVGID_454_);}
	.st413{fill:url(#SVGID_455_);}
	.st414{fill:url(#SVGID_456_);}
	.st415{fill:url(#SVGID_457_);}
	.st416{fill:url(#SVGID_458_);}
	.st417{fill:url(#SVGID_459_);}
	.st418{fill:url(#SVGID_460_);}
	.st419{fill:url(#SVGID_461_);}
	.st420{fill:url(#SVGID_462_);}
	.st421{fill:url(#SVGID_463_);}
	.st422{fill:url(#SVGID_464_);}
	.st423{fill:none;stroke:url(#SVGID_465_);stroke-width:5.5621;stroke-miterlimit:10;}
	.st424{fill:url(#SVGID_466_);}
	.st425{fill:url(#SVGID_467_);}
	.st426{fill:url(#SVGID_474_);}
	.st427{fill:url(#SVGID_475_);}
	.st428{fill:url(#SVGID_476_);}
	.st429{fill:url(#SVGID_477_);}
	.st430{fill:url(#SVGID_478_);}
	.st431{fill:url(#SVGID_479_);}
	.st432{fill:url(#SVGID_480_);}
	.st433{fill:url(#SVGID_481_);}
	.st434{fill:url(#SVGID_482_);}
	.st435{fill:url(#SVGID_483_);}
	.st436{fill:url(#SVGID_484_);}
	.st437{fill:url(#SVGID_485_);}
	.st438{fill:url(#SVGID_486_);}
	.st439{fill:url(#SVGID_487_);}
	.st440{fill:url(#SVGID_488_);}
	.st441{fill:url(#SVGID_489_);}
	.st442{fill:url(#SVGID_490_);}
	.st443{fill:url(#SVGID_491_);}
	.st444{fill:url(#SVGID_492_);}
	.st445{fill:url(#SVGID_493_);}
	.st446{fill:url(#SVGID_494_);}
	.st447{fill:url(#SVGID_495_);}
	.st448{fill:url(#SVGID_496_);}
	.st449{fill:url(#SVGID_497_);}
	.st450{fill:url(#SVGID_498_);}
	.st451{fill:url(#SVGID_499_);}
	.st452{fill:url(#SVGID_500_);}
	.st453{fill:url(#SVGID_503_);}
	.st454{fill:url(#SVGID_504_);}
	.st455{fill:url(#SVGID_505_);}
	.st456{fill:url(#SVGID_506_);}
	.st457{fill:url(#SVGID_507_);}
	.st458{fill:url(#SVGID_508_);}
	.st459{fill:url(#SVGID_509_);}
	.st460{fill:url(#SVGID_510_);}
	.st461{fill:url(#SVGID_511_);}
	.st462{fill:url(#SVGID_512_);}
	.st463{fill:url(#SVGID_513_);}
	.st464{fill:url(#SVGID_514_);}
	.st465{fill:url(#SVGID_515_);}
	.st466{fill:url(#SVGID_516_);}
	.st467{fill:url(#SVGID_517_);}
	.st468{fill:url(#SVGID_518_);}
	.st469{fill:url(#SVGID_519_);}
	.st470{fill:url(#SVGID_520_);}
	.st471{fill:url(#SVGID_521_);}
	.st472{fill:url(#SVGID_522_);}
	.st473{fill:none;stroke:url(#SVGID_523_);stroke-width:1.7427;stroke-miterlimit:10;}
	.st474{fill:none;stroke:url(#SVGID_524_);stroke-width:1.7427;stroke-miterlimit:10;}
	.st475{fill:none;stroke:url(#SVGID_525_);stroke-width:1.7427;stroke-miterlimit:10;}
	.st476{fill:url(#SVGID_526_);}
	.st477{fill:none;stroke:url(#SVGID_527_);stroke-width:1.7427;stroke-miterlimit:10;}
	.st478{fill:url(#SVGID_528_);}
	.st479{fill:none;stroke:url(#SVGID_529_);stroke-width:3;stroke-miterlimit:10;}
	.st480{fill:url(#SVGID_530_);}
	.st481{fill:url(#SVGID_537_);}
	.st482{fill:url(#SVGID_538_);}
	.st483{fill:url(#SVGID_539_);}
	.st484{fill:url(#SVGID_540_);}
	.st485{fill:url(#SVGID_541_);}
	.st486{fill:url(#SVGID_542_);}
	.st487{fill:url(#SVGID_543_);}
	.st488{fill:url(#SVGID_544_);}
	.st489{fill:none;stroke:#FFFFFF;stroke-width:1.2143;stroke-miterlimit:10;}
	.st490{fill:none;stroke:url(#SVGID_545_);stroke-width:1.2143;stroke-miterlimit:10;}
	.st491{fill:none;stroke:url(#SVGID_546_);stroke-width:1.2143;stroke-miterlimit:10;}
	.st492{fill:none;stroke:url(#SVGID_547_);stroke-width:1.4476;stroke-miterlimit:10;}
	.st493{fill:none;stroke:url(#SVGID_548_);stroke-width:1.2143;stroke-miterlimit:10;}
	.st494{fill:none;stroke:url(#SVGID_549_);stroke-width:1.2143;stroke-miterlimit:10;}
	.st495{fill:none;stroke:url(#SVGID_550_);stroke-width:1.9764;stroke-miterlimit:10;}
	.st496{fill:none;stroke:url(#SVGID_551_);stroke-width:1.3273;stroke-miterlimit:10;}
	.st497{fill:none;stroke:url(#SVGID_552_);stroke-width:1.3273;stroke-miterlimit:10;}
	.st498{clip-path:url(#SVGID_554_);fill:url(#SVGID_555_);}
	.st499{clip-path:url(#SVGID_554_);fill:url(#SVGID_556_);}
	.st500{clip-path:url(#SVGID_554_);fill:url(#SVGID_557_);}
	.st501{clip-path:url(#SVGID_554_);fill:url(#SVGID_558_);}
	.st502{fill:url(#SVGID_559_);}
	.st503{fill:none;stroke:url(#SVGID_560_);stroke-width:1.7427;stroke-miterlimit:10;}
	.st504{fill:url(#SVGID_561_);}
	.st505{fill:none;stroke:url(#SVGID_562_);stroke-width:1.7427;stroke-miterlimit:10;}
	.st506{fill:url(#SVGID_563_);}
	.st507{fill:url(#SVGID_564_);}
	.st508{fill:url(#SVGID_565_);}
	.st509{fill:url(#SVGID_566_);}
	.st510{fill:url(#SVGID_567_);}
	.st511{fill:none;stroke:url(#SVGID_568_);stroke-width:1.7427;stroke-miterlimit:10;}
	.st512{fill:url(#SVGID_569_);}
	.st513{fill:url(#SVGID_570_);}
	.st514{fill:url(#SVGID_571_);}
	.st515{fill:url(#SVGID_572_);}
	.st516{fill:url(#SVGID_573_);}
	.st517{fill:url(#SVGID_574_);}
	.st518{fill:url(#SVGID_575_);}
	.st519{fill:url(#SVGID_576_);}
	.st520{fill:url(#SVGID_577_);}
	.st521{fill:url(#SVGID_578_);}
	.st522{fill:url(#SVGID_579_);}
	.st523{fill:url(#SVGID_580_);}
	.st524{fill:url(#SVGID_581_);}
	.st525{fill:url(#SVGID_582_);}
	.st526{fill:url(#SVGID_583_);}
	.st527{fill:url(#SVGID_584_);}
	.st528{fill:url(#SVGID_585_);}
	.st529{fill:url(#SVGID_586_);}
	.st530{fill:url(#SVGID_587_);}
	.st531{fill:url(#SVGID_588_);}
	.st532{fill:none;stroke:url(#SVGID_589_);stroke-width:1.7427;stroke-miterlimit:10;}
	.st533{clip-path:url(#SVGID_591_);fill:url(#SVGID_592_);}
	.st534{clip-path:url(#SVGID_591_);fill:url(#SVGID_593_);}
	.st535{clip-path:url(#SVGID_591_);fill:url(#SVGID_594_);}
	.st536{clip-path:url(#SVGID_591_);fill:url(#SVGID_595_);}
	.st537{clip-path:url(#SVGID_597_);fill:url(#SVGID_598_);}
	.st538{clip-path:url(#SVGID_597_);fill:url(#SVGID_599_);}
	.st539{clip-path:url(#SVGID_597_);fill:url(#SVGID_600_);}
	.st540{clip-path:url(#SVGID_597_);fill:url(#SVGID_601_);}
	.st541{fill:url(#SVGID_602_);}
	.st542{fill:url(#SVGID_603_);}
	.st543{fill:url(#SVGID_604_);}
	.st544{fill:url(#SVGID_605_);}
	.st545{fill:none;}
	.st546{fill:url(#SVGID_606_);}
	.st547{fill:url(#SVGID_607_);}
	.st548{fill:url(#SVGID_608_);}
	.st549{fill:url(#SVGID_609_);}
	.st550{fill:url(#SVGID_610_);}
	.st551{fill:url(#SVGID_611_);}
	.st552{fill:url(#SVGID_612_);}
	.st553{fill:url(#SVGID_613_);}
	.st554{fill:url(#SVGID_614_);}
	.st555{fill:url(#SVGID_615_);}
	.st556{fill:url(#SVGID_616_);}
	.st557{fill:url(#SVGID_617_);}
	.st558{fill:url(#SVGID_618_);}
	.st559{fill:url(#SVGID_619_);}
	.st560{fill:url(#SVGID_620_);}
	.st561{fill:url(#SVGID_621_);}
	.st562{fill:url(#SVGID_622_);}
	.st563{fill:url(#SVGID_623_);}
	.st564{fill:url(#SVGID_624_);}
	.st565{fill:url(#SVGID_625_);}
	.st566{fill:url(#SVGID_626_);}
	.st567{fill:url(#SVGID_627_);}
	.st568{fill:url(#SVGID_628_);}
	.st569{fill:url(#SVGID_629_);}
	.st570{fill:url(#SVGID_630_);}
	.st571{fill:url(#SVGID_631_);}
	.st572{fill:url(#SVGID_632_);}
	.st573{fill:url(#SVGID_633_);}
	.st574{fill:url(#SVGID_634_);}
	.st575{fill:url(#SVGID_635_);}
	.st576{fill:url(#SVGID_636_);}
	.st577{fill:url(#SVGID_637_);}
	.st578{fill:url(#SVGID_638_);}
	.st579{fill:url(#SVGID_639_);}
	.st580{fill:url(#SVGID_640_);}
	.st581{fill:url(#SVGID_641_);}
	.st582{fill:url(#SVGID_642_);}
	.st583{fill:url(#SVGID_643_);}
	.st584{fill:url(#SVGID_644_);}
	.st585{fill:url(#SVGID_645_);}
	.st586{fill:url(#SVGID_646_);}
	.st587{fill:url(#SVGID_647_);}
	.st588{fill:url(#SVGID_648_);}
	.st589{fill:url(#SVGID_649_);}
	.st590{fill:url(#SVGID_650_);}
	.st591{fill:url(#SVGID_651_);}
	.st592{fill:url(#SVGID_652_);}
	.st593{fill:url(#SVGID_653_);}
	.st594{fill:url(#SVGID_654_);}
	.st595{fill:none;stroke:url(#SVGID_655_);stroke-width:3;stroke-miterlimit:10;}
	.st596{fill:none;stroke:url(#SVGID_656_);stroke-width:3;stroke-miterlimit:10;}
	.st597{fill:none;stroke:url(#SVGID_657_);stroke-width:3;stroke-miterlimit:10;}
	.st598{fill:none;stroke:url(#SVGID_658_);stroke-width:3;stroke-miterlimit:10;}
	.st599{fill:none;stroke:url(#SVGID_659_);stroke-width:3;stroke-miterlimit:10;}
	.st600{fill:none;stroke:url(#SVGID_660_);stroke-width:3;stroke-miterlimit:10;}
	.st601{fill:none;stroke:url(#SVGID_661_);stroke-width:3;stroke-miterlimit:10;}
	.st602{fill:none;stroke:url(#SVGID_662_);stroke-width:3;stroke-miterlimit:10;}
	.st603{fill:none;stroke:url(#SVGID_663_);stroke-width:3;stroke-miterlimit:10;}
	.st604{fill:none;stroke:url(#SVGID_664_);stroke-width:3;stroke-miterlimit:10;}
	.st605{clip-path:url(#SVGID_666_);}
	.st606{fill:url(#SVGID_667_);}
	.st607{fill:url(#SVGID_668_);}
	.st608{fill:url(#SVGID_669_);}
	.st609{fill:url(#SVGID_670_);}
	.st610{fill:none;stroke:url(#SVGID_671_);stroke-width:1.7427;stroke-miterlimit:10;}
	.st611{fill:none;stroke:url(#SVGID_672_);stroke-width:3;stroke-miterlimit:10;}
	.st612{fill:none;stroke:url(#SVGID_673_);stroke-width:3;stroke-miterlimit:10;}
	.st613{fill:none;stroke:url(#SVGID_674_);stroke-width:3;stroke-miterlimit:10;}
	.st614{fill:none;stroke:url(#SVGID_675_);stroke-width:3;stroke-miterlimit:10;}
	.st615{fill:none;stroke:url(#SVGID_676_);stroke-width:3;stroke-miterlimit:10;}
	.st616{clip-path:url(#SVGID_678_);}
	.st617{fill:url(#SVGID_679_);}
	.st618{fill:url(#SVGID_680_);}
	.st619{fill:url(#SVGID_681_);}
	.st620{fill:url(#SVGID_682_);}
	.st621{fill:none;stroke:url(#SVGID_683_);stroke-width:1.7427;stroke-miterlimit:10;}
	.st622{fill:none;stroke:url(#SVGID_684_);stroke-width:3;stroke-miterlimit:10;}
	.st623{fill:none;stroke:url(#SVGID_685_);stroke-width:3;stroke-miterlimit:10;}
	.st624{fill:none;stroke:url(#SVGID_686_);stroke-width:3;stroke-miterlimit:10;}
	.st625{fill:none;stroke:url(#SVGID_687_);stroke-width:3;stroke-miterlimit:10;}
	.st626{fill:none;stroke:url(#SVGID_688_);stroke-width:3;stroke-miterlimit:10;}
	.st627{fill:none;stroke:url(#SVGID_689_);stroke-width:3;stroke-miterlimit:10;}
	.st628{fill:none;stroke:url(#SVGID_690_);stroke-width:3;stroke-miterlimit:10;}
	.st629{fill:none;stroke:url(#SVGID_691_);stroke-width:3;stroke-miterlimit:10;}
	.st630{fill:none;stroke:url(#SVGID_692_);stroke-width:3;stroke-miterlimit:10;}
	.st631{fill:none;stroke:url(#SVGID_693_);stroke-width:3;stroke-miterlimit:10;}
	.st632{clip-path:url(#SVGID_695_);}
	.st633{fill:url(#SVGID_696_);}
	.st634{fill:url(#SVGID_697_);}
	.st635{fill:url(#SVGID_698_);}
	.st636{fill:url(#SVGID_699_);}
	.st637{fill:url(#SVGID_700_);}
	.st638{fill:url(#SVGID_701_);}
	.st639{fill:url(#SVGID_702_);}
	.st640{fill:url(#SVGID_703_);}
	.st641{fill:url(#SVGID_704_);}
	.st642{fill:url(#SVGID_705_);}
	.st643{fill:url(#SVGID_706_);}
	.st644{fill:none;stroke:url(#SVGID_707_);stroke-width:1.7427;stroke-miterlimit:10;}
	.st645{clip-path:url(#SVGID_709_);}
	.st646{fill:url(#SVGID_710_);}
	.st647{fill:url(#SVGID_711_);}
	.st648{fill:url(#SVGID_712_);}
	.st649{fill:url(#SVGID_713_);}
	.st650{fill:url(#SVGID_714_);}
	.st651{fill:url(#SVGID_715_);}
	.st652{fill:url(#SVGID_716_);}
	.st653{fill:#5FE8FF;}
	.st654{fill:#D619DB;}
	.st655{fill:none;stroke:url(#SVGID_717_);stroke-width:3;stroke-miterlimit:10;}
	.st656{fill:none;stroke:url(#SVGID_718_);stroke-width:3;stroke-miterlimit:10;}
	.st657{fill:none;stroke:url(#SVGID_719_);stroke-width:3;stroke-miterlimit:10;}
	.st658{fill:none;stroke:url(#SVGID_720_);stroke-width:3;stroke-miterlimit:10;}
	.st659{fill:none;stroke:url(#SVGID_721_);stroke-width:3;stroke-miterlimit:10;}
	.st660{fill:none;stroke:url(#SVGID_722_);stroke-width:3;stroke-miterlimit:10;}
	.st661{fill:none;stroke:url(#SVGID_723_);stroke-width:3;stroke-miterlimit:10;}
	.st662{fill:none;stroke:url(#SVGID_724_);stroke-width:3;stroke-miterlimit:10;}
	.st663{fill:none;stroke:url(#SVGID_725_);stroke-width:3;stroke-miterlimit:10;}
	.st664{fill:none;stroke:url(#SVGID_726_);stroke-width:3;stroke-miterlimit:10;}
	.st665{fill:none;stroke:url(#SVGID_727_);stroke-width:3;stroke-miterlimit:10;}
	.st666{fill:none;stroke:url(#SVGID_728_);stroke-width:3;stroke-miterlimit:10;}
	.st667{fill:none;stroke:url(#SVGID_729_);stroke-width:3;stroke-miterlimit:10;}
	.st668{fill:none;stroke:url(#SVGID_730_);stroke-width:3;stroke-miterlimit:10;}
</style>
<g>
	<linearGradient id="SVGID_1_" gradientUnits="userSpaceOnUse" x1="-66.2069" y1="45.2688" x2="144.1089" y2="49.8162">
		<stop  offset="0" style="stop-color:#FFFFFF"/>
		<stop  offset="1" style="stop-color:#00CCFA;stop-opacity:0"/>
	</linearGradient>
	<path class="st2" d="M21.29,12.64c0-1.08,0-2.07,0-3.17c0.29,0,0.53,0,0.77,0c2.29,0,4.58-0.01,6.88,0.01
		c0.45,0.01,0.61-0.14,0.72-0.55c1.52-5.29,6.27-8.9,11.73-8.93c5.47-0.04,10.22,3.46,11.85,8.78c0.16,0.53,0.38,0.72,0.94,0.71
		c2.23-0.04,4.46-0.01,6.69-0.01c0.23,0,0.46,0,0.78,0c0,1.06,0,2.07,0,3.16c0.34,0,0.58,0,0.83,0c3.34,0,6.69-0.05,10.03,0.04
		c1.44,0.04,2.9,0.23,4.29,0.58c4.16,1.06,6.56,3.87,7.31,8.03c0.33,1.83,0.39,3.72,0.4,5.58c0.04,10.43,0.02,20.86,0.02,31.29
		c0,0.25,0,0.49,0,0.79c-1.9,0-3.74,0-5.67,0c0-0.28,0-0.55,0-0.81c0-10.77,0-21.53-0.01-32.3c0-0.92-0.04-1.85-0.13-2.77
		c-0.28-2.81-1.72-4.33-4.55-4.57c-2.01-0.17-4.03-0.13-6.05-0.15c-1.89-0.02-3.78,0-5.68,0c-0.23,0-0.45,0-0.74,0
		c0,4.35,0,8.63,0,12.97c-13.48,0-26.9,0-40.38,0c0-4.29,0-8.58,0-12.91c-0.23-0.02-0.41-0.06-0.59-0.06
		c-2.88,0-5.76-0.01-8.64,0.01c-0.69,0.01-1.39,0.06-2.07,0.18c-2.66,0.47-4,1.84-4.17,4.59c-0.17,2.75-0.15,5.5-0.15,8.26
		C5.68,45.73,5.69,60.09,5.69,74.46c0,2.69,0,5.38,0.02,8.07c0.01,0.69,0.07,1.39,0.19,2.07c0.45,2.59,1.81,3.95,4.43,4.11
		c2.85,0.17,5.71,0.17,8.57,0.17c14.68,0.01,29.35,0.01,44.03,0.01c0.19,0,0.37,0.02,0.61,0.03c0,1.86,0,3.7,0,5.61
		c-0.16,0.01-0.34,0.05-0.51,0.05c-17.01,0-34.02,0-51.03-0.01c-1.88,0-3.73-0.3-5.49-0.98c-3.5-1.36-5.39-4.03-6.09-7.61
		c-0.25-1.27-0.39-2.59-0.39-3.88c-0.02-18.82-0.03-37.64,0.01-56.46c0-1.61,0.16-3.24,0.5-4.81c0.94-4.31,3.69-6.89,7.98-7.74
		c1.47-0.29,3-0.37,4.51-0.41c2.5-0.07,5-0.02,7.51-0.02C20.75,12.64,20.98,12.64,21.29,12.64z M55.95,15.15c-2.64,0-5.22,0-7.87,0
		c0-1.13,0.04-2.2-0.01-3.26c-0.16-3.86-3.92-6.83-7.71-6.12c-3.24,0.61-5.48,3.27-5.52,6.58c-0.01,0.92,0,1.84,0,2.85
		c-2.66,0-5.25,0-7.82,0c0,3.53,0,6.97,0,10.42c9.67,0,19.28,0,28.93,0C55.95,22.13,55.95,18.69,55.95,15.15z"/>
	<linearGradient id="SVGID_2_" gradientUnits="userSpaceOnUse" x1="-66.8954" y1="77.1134" x2="143.4204" y2="81.6608">
		<stop  offset="0" style="stop-color:#FFFFFF"/>
		<stop  offset="1" style="stop-color:#00CCFA;stop-opacity:0"/>
	</linearGradient>
	<path class="st3" d="M95.73,89.88c-1.51,1.48-2.96,2.9-4.48,4.39c-0.62-0.44-1.31-0.94-2-1.43c-0.24-0.17-0.5-0.32-0.71-0.52
		c-0.7-0.67-1.42-0.88-2.33-0.32c-0.33,0.21-0.54,0.35-0.6,0.75c-0.19,1.27-0.4,2.53-0.65,3.79c-0.03,0.18-0.28,0.45-0.43,0.45
		C82.63,97.02,80.74,97,78.85,97c-0.06,0-0.12-0.04-0.22-0.07c-0.22-1.33-0.47-2.67-0.66-4.02c-0.07-0.53-0.32-0.74-0.78-0.98
		c-0.79-0.41-1.35-0.29-2.01,0.26c-0.92,0.76-1.93,1.41-3.01,2.18c-0.7-0.72-1.39-1.45-2.09-2.16c-0.63-0.65-1.25-1.3-1.92-1.92
		c-0.32-0.3-0.29-0.51-0.05-0.84c0.75-1.01,1.46-2.06,2.21-3.07c0.23-0.31,0.18-0.56,0.1-0.91c-0.25-1.05-0.9-1.41-1.91-1.48
		c-0.96-0.07-1.91-0.31-2.86-0.44c-0.39-0.05-0.52-0.22-0.52-0.61c0.02-1.74,0.02-3.49,0-5.23c0-0.38,0.09-0.56,0.51-0.61
		c1.21-0.17,2.4-0.41,3.61-0.59c0.46-0.07,0.67-0.28,0.91-0.7c0.51-0.88,0.29-1.52-0.29-2.24c-0.73-0.89-1.35-1.87-2-2.78
		c1.5-1.48,2.96-2.92,4.47-4.41c1.02,0.73,2.14,1.51,3.23,2.33c0.39,0.29,0.69,0.3,1.18,0.16c0.98-0.27,1.27-0.88,1.36-1.8
		c0.11-1.12,0.35-2.24,0.54-3.39c2.08,0,4.13,0,6.26,0c0.22,1.29,0.43,2.58,0.66,3.88c0.05,0.3,0.08,0.72,0.28,0.85
		c0.47,0.3,1.02,0.47,1.56,0.65c0.11,0.03,0.29-0.13,0.43-0.23c1.15-0.82,2.29-1.64,3.37-2.41c1.49,1.48,2.95,2.94,4.47,4.45
		c-0.73,1.02-1.5,2.14-2.31,3.23c-0.29,0.39-0.31,0.69-0.16,1.18c0.28,0.93,0.82,1.26,1.74,1.35c1.15,0.11,2.28,0.36,3.45,0.55
		c0,2.1,0,4.17,0,6.28c-1.38,0.23-2.74,0.47-4.11,0.68c-0.44,0.07-0.63,0.28-0.85,0.66c-0.5,0.87-0.32,1.51,0.28,2.24
		C94.41,87.92,95.03,88.9,95.73,89.88z M76.82,80.29c-0.01,2.75,2.21,5,4.94,5.01c2.72,0.01,4.98-2.24,4.99-4.97
		c0.02-2.73-2.21-4.98-4.95-5C79.06,75.31,76.83,77.53,76.82,80.29z"/>
	<linearGradient id="SVGID_4_" gradientUnits="userSpaceOnUse" x1="-66.1355" y1="41.9655" x2="144.1803" y2="46.5129">
		<stop  offset="0" style="stop-color:#FFFFFF"/>
		<stop  offset="1" style="stop-color:#00CCFA;stop-opacity:0"/>
	</linearGradient>
	<path style="fill:url(#SVGID_4_);" d="M65.93,41.49c0,1.9,0,3.74,0,5.64c-15.75,0-31.48,0-47.26,0c0-1.88,0-3.74,0-5.64
		C34.41,41.49,50.13,41.49,65.93,41.49z"/>
	<linearGradient id="SVGID_5_" gradientUnits="userSpaceOnUse" x1="-66.4433" y1="56.2004" x2="143.8725" y2="60.7478">
		<stop  offset="0" style="stop-color:#FFFFFF"/>
		<stop  offset="1" style="stop-color:#00CCFA;stop-opacity:0"/>
	</linearGradient>
	<path class="st4" d="M65.92,61.36c-15.77,0-31.47,0-47.23,0c0-1.87,0-3.72,0-5.62c15.73,0,31.46,0,47.23,0
		C65.92,57.61,65.92,59.45,65.92,61.36z"/>
	<linearGradient id="SVGID_6_" gradientUnits="userSpaceOnUse" x1="-66.7513" y1="70.4486" x2="143.5645" y2="74.996">
		<stop  offset="0" style="stop-color:#FFFFFF"/>
		<stop  offset="1" style="stop-color:#00CCFA;stop-opacity:0"/>
	</linearGradient>
	<path class="st7" d="M62.08,69.96c0,1.89,0,3.72,0,5.61c-14.47,0-28.91,0-43.41,0c0-1.87,0-3.72,0-5.61
		C33.14,69.96,47.56,69.96,62.08,69.96z"/>
</g>
</svg>
